
<svg xmlns="http://www.w3.org/2000/svg" viewBox="0 0 19 14"><g fill="#8C46AA"><path d="M11.5 4.9c-.5-.5-.9-.6-1.5-.3a14.2 14.2 0 0 1-2.5 1.1c-.8.1-1.7-.5-1.9-1.3-.3-.8 0-1.7.8-2.3l1.3-.8L8.9.7 8.6.5C7.9 0 7.1-.1 6.3.2c-.9.4-1.8.8-2.6 1.4a2 2 0 0 1-1.3.2L0 1v6.6L1 8v-.1c.3-.7.8-1.1 1.5-1.3 1-.2 2 .2 2.3 1.2L5 8c.5.2.9.5 1.1 1l.2.2c.5.2.9.6 1.1 1.2l.2.2c.8.3 1.3 1.1 1.2 2v.1l.5.5c.4.4 1.1.2 1.3-.4.1-.3 0-.6-.2-.8l-1-1.1-.1-.3.2.1 1.3 1.3c.3.3.6.3.9.2.3-.1.5-.4.5-.8l-.3-.6-1.1-1.1-.2-.4.2.2 1.4 1.4c.3.3.7.4 1 .2.5-.3.6-.9.2-1.4l-1.1-1.1-.1-.3c.1-.1.2 0 .3.1l1.1 1.1c.4.4.9.4 1.2 0a1 1 0 0 0 0-1.2l-3.3-3.4z" class="st0"/><path d="M18.8 1.7l-2.7.6c-.4.1-.7 0-1-.3L13.2.4c-.6-.5-1.2-.5-1.9-.2L6.8 2.8c-.5.3-.7.9-.4 1.5.2.5.9.7 1.4.4L9.1 4l1.5-.8c.5-.2.9-.1 1.3.3l3.8 3.8c.3.3.7.5 1.2.4l2-.4V1.7h-.1zm-12 9.7h-.4c.1-.4.1-.8-.2-1.1-.2-.3-.6-.3-1-.3C5.2 9 5 8.8 4 8.7v-.1c.1-.7-.4-1.2-1.1-1.1-.6 0-1.1.6-1.2 1.2l.1.6c.2.4.5.5 1 .4l.4-.1-.3.4c-.1.3 0 .5.2.8.2.2.4.3.7.2l.5-.1-.2.5c-.1.3 0 .6.2.8.2.2.5.2.8.1l.5-.1-.2.5c-.1.4 0 .8.5 1 .6.2 1.6-.1 1.9-1 .2-.7-.3-1.3-1-1.3z" /></g></svg>
