<svg xmlns="http://www.w3.org/2000/svg" width="64" height="64" viewBox="0 0 64 64">
  <title>too-little</title>
  <circle cx="32" cy="32" r="32" fill="#fff"/>
  <g>
    <path d="M59.187,25.274a28.007,28.007,0,0,0-54.336-.142l34.73,2.847Z" fill="#dde4eb"/>
    <path d="M4,32.418q.006.374.021.746l15.136,2.7L59.985,32.92c.014-.444.019-.89.013-1.338a28.085,28.085,0,0,0-.81-6.308l-19.606,2.7L4.851,25.131A28.031,28.031,0,0,0,4,32.418Z" fill="#fecc5c"/>
    <path d="M19.16,35.867l-15.136-2.7a28.118,28.118,0,0,0,.471,4.1,27.794,27.794,0,0,0,1.246,4.475l38.48,3.106,14.425-4.215a27.849,27.849,0,0,0,1.338-7.7Z" fill="#fd8d3c"/>
    <path d="M44.221,44.84,5.741,41.734q.352.951.771,1.868a28.085,28.085,0,0,0,7.929,10.207l37.668-2.325a28.018,28.018,0,0,0,6.538-10.86Z" fill="#f03b20"/>
    <path d="M14.441,53.809q.7.566,1.441,1.086a27.989,27.989,0,0,0,36.227-3.411l-24.285.008Z" fill="#bd0026"/>
  </g>
</svg>
