<svg xmlns="http://www.w3.org/2000/svg" width="64" height="64" viewBox="0 0 64 64">
  <title>too-dirty</title>
  <circle cx="32" cy="32" r="32" fill="#fff"/>
  <g>
    <g>
      <path d="M32,26.109a117.939,117.939,0,0,0,27.422.206,28.006,28.006,0,0,0-54.756-.407A116.557,116.557,0,0,1,32,26.109Z" fill="#dde4eb"/>
      <path d="M4.025,30.857a28.013,28.013,0,0,1,.641-4.948" fill="#fbb4b9"/>
      <path d="M36.022,31.072c11.753,4.471,21.078,1.558,23.971.407a28.1,28.1,0,0,0-.571-5.164A117.939,117.939,0,0,1,32,26.109a116.557,116.557,0,0,0-27.334-.2,28.013,28.013,0,0,0-.641,4.948C7.72,29.905,23.537,26.322,36.022,31.072Z" fill="#fbb4b9"/>
      <path d="M4.512,37.344a28.026,28.026,0,0,1-.438-3.333" fill="#f768a1"/>
      <path d="M4.073,34.011C4.028,33.378,4,32.739,4,32.1c0-.415.008-.828.025-1.239" fill="#f768a1"/>
      <path d="M59.993,31.479c-2.893,1.151-12.218,4.064-23.971-.407-12.485-4.75-28.3-1.166-32-.215C4.008,31.267,4,31.68,4,32.1c0,.644.028,1.282.073,1.916a28.032,28.032,0,0,0,.439,3.333c3.4-.549,12.861-1.769,20.218.226,7.831,2.123,28.871.6,34.689.129a28.033,28.033,0,0,0,.51-3.687Q60,32.968,60,31.9C60,31.762,60,31.621,59.993,31.479Z" fill="#f768a1"/>
      <path d="M8.871,47.784a27.866,27.866,0,0,1-3.916-8.514" fill="#c51b8a"/>
      <path d="M4.955,39.271q-.255-.951-.443-1.927" fill="#c51b8a"/>
      <path d="M24.729,37.569c-7.356-2-16.821-.775-20.218-.226q.189.976.443,1.927a27.865,27.865,0,0,0,3.916,8.513c7.028.662,18.77,1.364,24.212-.624,5.484-2,16.429-1.276,22.842-.609a27.842,27.842,0,0,0,3.12-7.28q.209-.778.374-1.573C53.6,38.172,32.56,39.692,24.729,37.569Z" fill="#c51b8a"/>
      <path d="M10.127,49.481q-.659-.824-1.257-1.7" fill="#7a0177"/>
      <path d="M33.083,47.16c-5.442,1.989-17.184,1.287-24.212.624q.6.873,1.257,1.7a28.021,28.021,0,0,0,45.8-2.93C49.512,45.884,38.566,45.156,33.083,47.16Z" fill="#7a0177"/>
    </g>
    <circle cx="14.391" cy="31.886" r="1.588" fill="#fca6bf"/>
    <circle cx="37.462" cy="35.41" r="0.836" transform="translate(-14.067 36.861) rotate(-45)" fill="#fca6bf"/>
    <circle cx="39.889" cy="52.596" r="1.701" fill="#bd70a9"/>
    <circle cx="23.121" cy="43.777" r="1.682" fill="#e37db3"/>
  </g>
</svg>
