<svg xmlns="http://www.w3.org/2000/svg" width="64" height="64" viewBox="0 0 64 64">
  <title>too-much</title>
  <circle cx="32" cy="32" r="32" fill="#fff"/>
  <g>
    <g>
      <path d="M14.375,26.033c.006,1.772,2.972,4.39,5.871,4.381s5.847-2.609,5.841-4.42c.006,1.785,3,4.39,5.9,4.38,2.23-.008,5.624-2.673,5.619-4.42.006,1.76,3.376,4.389,6.122,4.38,2.9-.01,5.847-2.661,5.841-4.421.006,1.76,3.419,4.389,5.9,4.38,2.062-.007,3.47-.394,4.357-1.255a27.975,27.975,0,0,0-55.6-.347,6.208,6.208,0,0,0,4.281,1.762C11.4,30.444,14.382,27.883,14.375,26.033Z" fill="#dde4eb"/>
      <path d="M59.827,29.038c-.887.861-2.3,1.249-4.357,1.255-2.481.009-5.894-2.621-5.9-4.38.006,1.76-2.942,4.41-5.841,4.421-2.746.009-6.117-2.62-6.122-4.38.006,1.747-3.389,4.412-5.619,4.42-2.9.01-5.894-2.595-5.9-4.38.006,1.811-2.942,4.41-5.841,4.42s-5.865-2.608-5.871-4.381c.006,1.85-2.971,4.411-5.87,4.42a6.208,6.208,0,0,1-4.281-1.762c-.023.2-.06.394-.079.594q-.034.351-.06.7c-.059.834-.1,1.673-.081,2.525A28,28,0,1,0,60,31.486C59.98,30.659,59.912,29.846,59.827,29.038Z" fill="#253494"/>
    </g>
    <path d="M4.284,36a28,28,0,0,0,55.356.5,6.482,6.482,0,0,1-4.146,1.066c-2.481.008-5.894-2.621-5.9-4.38.006,1.76-2.942,4.41-5.841,4.42-2.746.009-6.117-2.62-6.123-4.379.006,1.747-3.389,4.412-5.618,4.419-2.9.01-5.894-2.6-5.9-4.38.006,1.811-2.942,4.41-5.841,4.42S14.406,35.077,14.4,33.3c.006,1.85-2.971,4.41-5.87,4.42A6.212,6.212,0,0,1,4.284,36Z" fill="#2c7fb8"/>
    <path d="M6.827,44.274a28.01,28.01,0,0,0,50.351-.012,12.166,12.166,0,0,1-1.661.109c-2.481.008-5.894-2.621-5.9-4.38.006,1.76-2.942,4.41-5.841,4.42-2.746.009-6.117-2.62-6.123-4.379.006,1.747-3.389,4.412-5.618,4.419-2.9.01-5.894-2.6-5.9-4.38.006,1.811-2.942,4.41-5.841,4.42s-5.865-2.608-5.871-4.38c.006,1.85-2.971,4.41-5.87,4.42A5.889,5.889,0,0,1,6.827,44.274Z" fill="#41b6c4"/>
    <path d="M32.513,60A27.913,27.913,0,0,0,52.185,51.4c-1.42-.919-2.537-2.208-2.54-3.214.006,1.76-2.942,4.41-5.841,4.42-2.746.009-6.117-2.62-6.123-4.379.006,1.747-3.389,4.412-5.618,4.419-2.9.01-5.894-2.6-5.9-4.38.006,1.811-2.942,4.41-5.841,4.42s-5.865-2.608-5.871-4.38c0,1.078-1.007,2.4-2.425,3.313A27.921,27.921,0,0,0,32.513,60Z" fill="#a1dab4"/>
  </g>
</svg>
