<svg viewBox="0 0 244 120" xmlns="http://www.w3.org/2000/svg"><g stroke="#FFF" fill="none" fill-rule="evenodd"><path d="M3.8 120.8c29.8-26.7 48.8-41.7 134.6-22.3 52.5 12 58.1-46.2 141.1-46.2"/><path d="M6.6 125.6c29.9-26.8 48.8-41.7 134.6-22.3 52.5 12 58.1-46.2 141.1-46.2"/><path d="M9.4 130.3c29.9-26.7 48.8-41.7 134.6-22.2C196.5 120 202 61.9 285 61.9"/><path d="M12.2 135c29.9-26.7 48.8-41.6 134.6-22.2 52.5 12 58.1-46.2 141.1-46.2"/><path d="M15 139.8c29.9-26.7 48.8-41.7 134.6-22.2 52.5 11.9 58.1-46.2 141.1-46.2"/><path d="M17.8 144.6C47.7 118 66.6 103 152.4 122.3c52.5 12 58.1-46.2 141.1-46.2"/><path d="M20.6 149.4c29.9-26.8 48.8-41.7 134.6-22.3 52.5 12 58.1-46.2 141.1-46.2"/><path d="M23.4 154.1C53.3 127.4 72.2 112.4 158 132 210.5 143.8 216 85.7 299 85.7"/><path d="M26.2 158.9C56.1 132 75 117.2 160.8 136.6c52.5 12 58.1-46.2 141.1-46.2"/><path d="M29 163.7c29.9-26.8 48.8-41.8 134.6-22.3 52.5 11.9 58.1-46.2 141.1-46.2"/><path d="M31.8 168.4c29.9-26.7 48.8-41.7 134.6-22.2 52.5 11.9 58.1-46.3 141.1-46.3"/><path d="M34.6 173.2c29.9-26.8 48.8-41.7 134.6-22.3 52.5 12 58.1-46.2 141.1-46.2"/><path d="M37.4 178c29.9-26.8 48.8-41.8 134.6-22.3 52.5 11.9 58.1-46.2 141.1-46.2"/><path d="M40.2 182.7C70.1 156 89 141 174.8 160.4c52.5 12 58.1-46.2 141.1-46.2M1 116c29.8-26.7 48.8-41.7 134.6-22.2 52.5 11.9 58.1-46.2 141.1-46.2"/></g></svg>
