<svg viewBox="0 0 401 60" fill="none" xmlns="http://www.w3.org/2000/svg"><g opacity=".4" stroke="#fff"><path d="M36.6 188.4c38.6-40 63.4-62.8 185.6-48.3 74.7 8.9 75.9-70.2 192-81.5"/><path d="M36 181.7c38.7-40.1 63.4-62.9 185.6-48.4 74.7 9 75.9-70.2 192-81.5"/><path d="M35.5 175C74 134.7 98.9 112 221 126.5c74.8 8.9 75.9-70.2 192-81.5"/><path d="M34.9 168.2c38.6-40.2 63.4-63 185.5-48.4 74.8 9 76-70.2 192-81.5"/><path d="M34.3 161.4c38.6-40.1 63.4-62.9 185.5-48.3 74.8 8.9 76-70.2 192-81.5"/><path d="M33.7 154.7c38.7-40.2 63.4-63 185.6-48.4 74.7 9 75.9-70.2 192-81.5"/><path d="M33.2 147.9C71.8 107.8 96.5 85 218.7 99.6c74.7 8.9 75.9-70.2 192-81.6"/><path d="M32.6 141.1C71.2 101.1 96 78.3 218 92.8c74.8 8.9 76-70.2 192-81.5"/><path d="M32 134.4C70.6 94.3 95.4 71.5 217.5 86c74.8 8.8 76-70.3 192-81.6"/><path d="M31.4 127.6C70 87.6 94.8 64.8 217 79.3c74.7 8.9 75.9-70.2 192-81.5"/><path d="M30.9 120.9C69.5 80.8 94.2 58 216.4 72.5c74.7 9 75.9-70.2 192-81.5"/></g></svg>
