<svg id="too-little" xmlns="http://www.w3.org/2000/svg" width="44" height="44" viewBox="0 0 44 44"><path d="M31 22.5a.6.6 0 0 0-.5-.3H17.8a.6.6 0 0 0-.4.2L16 23.8a.6.6 0 0 0 .3.9l5.6 1.9a.6.6 0 0 0 .2 0h10a.6.6 0 0 0 .5-.8zm-9.3 5.1L16 25.7a.6.6 0 0 0-.7.6v6.5a.6.6 0 0 0 .4.5l6.5 1.9a.6.6 0 0 0 .7-.6L22 28a.6.6 0 0 0-.3-.5zm-7.4 1.9v-4h-1.1L2.7 27.2a19.9 19.9 0 0 0 2.4 5.5l8.8-2.7a.6.6 0 0 0 .4-.5zM32 27.7h-8.2a.6.6 0 0 0-.6.6l1 6.4a.6.6 0 0 0 .7.5l4.6-2a.6.6 0 0 0 .3-.1l2.7-4.5a.6.6 0 0 0-.5-.9zM12.3 38.1l2-4.8a.6.6 0 0 0 0-.2v-1.3a.6.6 0 0 0-.7-.5l-7.7 2.5a20 20 0 0 0 2.4 2.8l3.2 1.8a.6.6 0 0 0 .8-.3zm11.9 2.4V37a.6.6 0 0 0-.4-.6l-8-2a.6.6 0 0 0-.6.3l-1.8 3.6a.6.6 0 0 0 .2.7l4.4 2.6 1.6.2 4.2-.8a.6.6 0 0 0 .4-.5zm11.3-5.2l-5.6-1a.6.6 0 0 0-.3.1l-4 2a.6.6 0 0 0-.3.5v3.5a.6.6 0 0 0 .6.5h2.5a20 20 0 0 0 7.2-4.3l.3-.5a.6.6 0 0 0-.4-.8zM34 28l-2.8 4.5a.6.6 0 0 0 .4.9l5.6.9a.6.6 0 0 0 .4-.1l.6-.5a20 20 0 0 0 2.7-5.1l-6.4-.8a.6.6 0 0 0-.6.2zm-18.1-8L2 22a20 20 0 0 0 .5 4.2L14 24.4a.6.6 0 0 0 .3-.1l2-2a.6.6 0 0 0 0-.3h.1v-1.4a.6.6 0 0 0-.6-.5zm21.7 2l-4.3-.8a.6.6 0 0 0-.5.1l-.6.6v.1a.5.5 0 0 0 0 .6l1.8 3.7a.6.6 0 0 0 .4.3l6.8.9a20 20 0 0 0 .8-4.6z"/></svg>
