<svg xmlns="http://www.w3.org/2000/svg" viewBox="0 0 20 14"><path fill="#379bdc" d="M19.6 2.7s-1 .5-1.2.9v.1l-.2-.4c.5-.5 1.5-1.9-.3-2.6l-.6 1.1C16.3.6 15.2.2 14.1.3L16 2c-.3.1-.8.2-.9.5 0 0 .1.5 1.1.9l1.5.1.3.8c-.4-.5-1-.7-1.8-.3 0 0 .4.7.8 1l1.3.5v.7l-.5-.2C16.5 4.5 15 4.8 15 4.8c-1.1 0-2.5.8-2.5.8C11.9 1.7 7.3.9 7.3.9c1.8 2.3.7 3 .7 3-3.6.6-6.6-2.2-6.6-2.2.3 5.4 4.6 7 4.6 7 0 .9-1.3 1.4-1.3 1.4L0 11.6a9 9 0 0 1 3 1.9c1.5-1.6 3.3-1.8 3.3-1.8s1.2.8 3.5.8 3.8-1.3 4.5-2.9a5 5 0 0 1 2.4-2.3l1.4-.1-.4 1.3c1.1-.8 1.3-2.2 1.1-3.5.7-.2 1.8-1 .8-2.3z"/></svg>
