<svg xmlns="http://www.w3.org/2000/svg" viewBox="0 0 15 10"><g fill="#6E6EC8"><path d="M2.8 3.2s.1 0 0 0c.1 0 .1 0 0 0l.2.6v1.5h.3V3c-.1-.9-.8-.9-1.2-.9-.4 0-1.3 0-1.3 1.2v2h.3l.1-1.2v-.3l.1-.5v2L.5 6.6h.7v3.2h.7l.2-3.3.2 3.3H3V6.6h.7l-.8-1.4-.1-2z"/><circle cx="2.1" cy="1.2" r="1"/><path d="M5.9.2a1 1 0 0 0 0 2H6l.3-.1c.3-.2.5-.5.5-.8A1 1 0 0 0 5.9.2z"/><path d="M5.6 2.1s.1 0 0 0c-.3 0-.9 0-1.2.4l-.1.8v2.1h.4l.1-1.5.1-.7v2l-.1 4.6h.7l.2-3.3.2 3.3h.7l-.2-4.6V3.3l.1.6v1.6h.3V3.3c.1-1.1-.7-1.2-1.2-1.2zm4.9 1.2c0-.1 0-.1 0 0 0-.1 0-.1 0 0l.1.5.1 1.5h.3V3c-.2-.9-1-.9-1.3-.8-.4 0-1.4 0-1.4 1.2v2h.4l.1-1.2v-.3l.1-.5v2l-.8 1.2h.7l.1 3.2h.7l.2-3.3.2 3.3h.7l.1-3.2h.7l-.8-1.3c-.2-.1-.2-1.8-.2-2z"/><circle cx="9.7" cy="1.2" r="1"/><path d="M13.5 2.1h.1l.3-.1c.3-.2.5-.5.5-.8a1 1 0 0 0-2 0c.2.5.6.9 1.1.9zm-.2 0c-.3 0-.9 0-1.2.4l-.1.8v2h.4l.1-1.5.1-.6v2l-.1 4.6h.7l.2-3.3.2 3.3h.7l-.1-4.6V3.3l.1.6v1.5h.3v-2c-.1-1.2-.9-1.3-1.3-1.3z"/></g></svg>
