<svg xmlns="http://www.w3.org/2000/svg" width="111" height="35" fill="none">
  <path fill="#ACE6F9" d="M107.4.59c-4.3 4.227-10.1 6.587-16.3 6.587-6.1 0-11.9-2.36-16.3-6.587-.8-.787-2.2-.787-3 0-4.3 4.227-10.1 6.587-16.3 6.587-6.1 0-11.9-2.36-16.3-6.587-.8-.787-2.2-.787-3 0-4.3 4.227-10.1 6.587-16.3 6.587C13.8 7.177 8 4.817 3.6.59c-.8-.787-2.2-.787-3 0-.8.786-.8 2.163 0 2.95 5.1 5.013 12 7.865 19.3 7.865 6.6 0 12.8-2.262 17.8-6.49 4.9 4.228 11.2 6.49 17.8 6.49 6.6 0 12.8-2.262 17.8-6.49 4.9 4.228 11.2 6.49 17.8 6.49 7.3 0 14.1-2.753 19.3-7.866.8-.786.8-2.163 0-2.95-.9-.786-2.2-.786-3 0z" opacity=".3"/>
  <path fill="#ACE6F9" d="M107.4 12.388c-4.3 4.227-10.1 6.587-16.3 6.587-6.1 0-11.9-2.36-16.3-6.587-.8-.787-2.2-.787-3 0-4.3 4.227-10.1 6.587-16.3 6.587-6.1 0-11.9-2.36-16.3-6.587-.8-.787-2.2-.787-3 0-4.3 4.227-10.1 6.587-16.3 6.587-6.1 0-11.9-2.36-16.3-6.587-.8-.787-2.2-.787-3 0-.8.786-.8 2.162 0 2.95 5.1 5.013 12 7.864 19.3 7.864 6.6 0 12.8-2.261 17.8-6.489 4.9 4.228 11.2 6.49 17.8 6.49 6.6 0 12.8-2.262 17.8-6.49 4.9 4.228 11.2 6.49 17.8 6.49 7.3 0 14.1-2.754 19.3-7.866.8-.787.8-2.163 0-2.95-.9-.786-2.2-.786-3 0z" opacity=".7"/>
  <path fill="#ACE6F9" d="M107.4 24.185c-4.3 4.228-10.1 6.587-16.3 6.587-6.1 0-11.9-2.36-16.3-6.587-.8-.786-2.2-.786-3 0-4.3 4.228-10.1 6.587-16.3 6.587-6.1 0-11.9-2.36-16.3-6.587-.8-.786-2.2-.786-3 0-4.3 4.228-10.1 6.587-16.3 6.587-6.1 0-11.9-2.36-16.3-6.587-.8-.786-2.2-.786-3 0-.8.787-.8 2.163 0 2.95C5.7 32.149 12.6 35 19.9 35c6.6 0 12.8-2.261 17.8-6.489C42.6 32.74 48.9 35 55.5 35c6.6 0 12.8-2.261 17.8-6.489C78.2 32.74 84.5 35 91.1 35c7.3 0 14.1-2.753 19.3-7.865.8-.787.8-2.163 0-2.95-.9-.786-2.2-.786-3 0z"/>
</svg>
