<svg viewBox="0 0 1440 210" fill="none" xmlns="http://www.w3.org/2000/svg"><mask id="a" maskUnits="userSpaceOnUse" x="-1" y="26" width="1442" height="184"><path d="M1440 39.7c-81-27.5-160.1-2.1-249 12.8-102.5 17.2-133.6 33.3-299 13.5-113-13.5-155.5-56.2-316 3.7-195 72.8-199 56-461 0-72.5-15.5-115-30-115-30" stroke="#fff"/><path d="M1440 46.2c-81-27.5-160.1-2.1-249 12.8-102.5 17.2-133.6 33.3-299 13.5C779 59 736.5 16.3 576 76.2c-195 72.8-199 56-461 0-72.5-15.5-115-30-115-30" stroke="#fff"/><path d="M1440 52.8c-81-27.5-160.1-2.2-249 12.7-102.5 17.3-133.6 33.3-299 13.5-113-13.5-155.5-56.2-316 3.8-195 72.7-199 56-461 0-72.5-15.5-115-30-115-30" stroke="#fff"/><path d="M1440 59.3c-81-27.5-160.1-2.2-249 12.8-102.5 17.2-133.6 33.2-299 13.5C779 72 736.5 29.4 576 89.3c-195 72.8-199 56-461 0-72.5-15.5-115-30-115-30" stroke="#fff"/><path d="M1440 65.8c-81-27.5-160.1-2.2-249 12.8-102.5 17.2-133.6 33.2-299 13.5-113-13.5-155.5-56.2-316 3.7-195 72.8-199 56-461 0-72.5-15.5-115-30-115-30" stroke="#fff"/><path d="M1440 72.3c-81-27.5-160.1-2.1-249 12.8-102.5 17.2-133.6 33.3-299 13.5-113-13.5-155.5-56.2-316 3.7-195 72.8-199 56-461 0-72.5-15.5-115-30-115-30" stroke="#fff"/><path d="M1440 78.8c-81-27.5-160.1-2.1-249 12.8-102.5 17.2-133.6 33.3-299 13.5-113-13.5-155.5-56.2-316 3.7-195 72.8-199 56-461 0-72.5-15.5-115-30-115-30" stroke="#fff"/><path d="M1440 85.4c-81-27.5-160.1-2.2-249 12.7-102.5 17.3-133.6 33.3-299 13.5-113-13.5-155.5-56.2-316 3.8-195 72.7-199 56-461 0-72.5-15.5-115-30-115-30" stroke="#fff"/><path d="M1440 91.9c-81-27.5-160.1-2.2-249 12.8-102.5 17.2-133.6 33.2-299 13.5-113-13.5-155.5-56.2-316 3.7-195 72.8-199 56-461 0-72.5-15.5-115-30-115-30" stroke="#fff"/><path d="M1440 98.4c-81-27.5-160.1-2.2-249 12.8-102.5 17.2-133.6 33.2-299 13.5-113-13.5-155.5-56.2-316 3.7-195 72.8-199 56-461 0-72.5-15.5-115-30-115-30" stroke="#fff"/><path d="M1440 105c-81-27.6-160.1-2.2-249 12.7-102.5 17.2-133.6 33.3-299 13.5-113-13.5-155.5-56.2-316 3.7-195 72.8-199 56-461 0C42.5 119.4 0 105 0 105" stroke="#fff"/><path d="M1440 111.4c-81-27.5-160.1-2.1-249 12.8-102.5 17.2-133.6 33.3-299 13.5-113-13.5-155.5-56.2-316 3.7-195 72.8-199 56-461 0-72.5-15.5-115-30-115-30" stroke="#fff"/><path d="M1440 118c-81-27.5-160.1-2.2-249 12.7-102.5 17.3-133.6 33.3-299 13.5C779 130.7 736.5 88 576 148c-195 72.7-199 56-461 0C42.5 132.5 0 118 0 118" stroke="#fff"/><path d="M1440 124.5c-81-27.5-160.1-2.2-249 12.8-102.5 17.2-133.6 33.2-299 13.5-113-13.5-155.5-56.2-316 3.7-195 72.8-199 56-461 0-72.5-15.5-115-30-115-30" stroke="#fff"/><path d="M1440 131c-81-27.5-160.1-2.2-249 12.8-102.5 17.2-133.6 33.2-299 13.5-113-13.5-155.5-56.2-316 3.7-195 72.8-199 56-461 0C42.5 145.5 0 131 0 131" stroke="#fff"/></mask><g mask="url(#a)"><path d="M1440 209H0V23h1440v186z" fill="url(#paint0_linear)"/></g><path d="M892 66c165.4 19.8 196.5 3.7 299-13.5 88.9-15 168-40.3 249-12.8V0H0v39.7s42.5 14.5 115 30c262 56 266 72.8 461 0C736.5 9.8 779 52.5 892 66z" fill="#080808"/><defs><linearGradient id="paint0_linear" x1="861.1" y1="23" x2="862" y2="193.5" gradientUnits="userSpaceOnUse"><stop stop-color="#68D4F5"/><stop offset="1" stop-color="#0A31FF" stop-opacity="0"/></linearGradient></defs></svg>
