<svg xmlns="http://www.w3.org/2000/svg" width="64" height="64" viewBox="0 0 64 64">
  <title>too-much</title>
  <circle cx="32" cy="32" r="30" fill="#fff"/>
  <g>
    <g>
      <path d="M15.634,26.46c.006,1.646,2.76,4.077,5.451,4.068s5.43-2.423,5.424-4.1c.006,1.657,2.787,4.076,5.478,4.067,2.07-.007,5.223-2.482,5.217-4.1.005,1.634,3.135,4.076,5.685,4.067,2.692-.01,5.43-2.471,5.424-4.1.006,1.634,3.175,4.075,5.479,4.067,1.915-.006,3.222-.366,4.046-1.166a25.977,25.977,0,0,0-51.631-.322,5.765,5.765,0,0,0,3.976,1.636C12.875,30.555,15.64,28.177,15.634,26.46Z" fill="#dde4eb"/>
      <path d="M57.839,29.25c-.824.8-2.131,1.159-4.046,1.166-2.3.008-5.473-2.433-5.479-4.067.006,1.634-2.732,4.1-5.424,4.1-2.55.009-5.68-2.433-5.685-4.067.005,1.622-3.147,4.1-5.217,4.1-2.692.009-5.473-2.41-5.478-4.067.006,1.682-2.732,4.095-5.424,4.1s-5.446-2.422-5.451-4.068c.006,1.718-2.759,4.1-5.451,4.1a5.765,5.765,0,0,1-3.976-1.636c-.022.185-.056.366-.074.551q-.032.326-.055.654c-.055.774-.09,1.554-.075,2.344A26,26,0,0,0,58,31.523C57.981,30.755,57.918,30,57.839,29.25Z" fill="#253494"/>
    </g>
    <path d="M6.264,35.714a26,26,0,0,0,51.4.464,6.019,6.019,0,0,1-3.85.989c-2.3.008-5.473-2.434-5.479-4.067.006,1.634-2.732,4.1-5.424,4.1-2.55.009-5.68-2.433-5.685-4.067.006,1.622-3.147,4.1-5.217,4.1-2.692.009-5.473-2.41-5.478-4.067.006,1.682-2.732,4.1-5.424,4.1s-5.446-2.422-5.452-4.067c.006,1.717-2.759,4.1-5.451,4.1A5.768,5.768,0,0,1,6.264,35.714Z" fill="#2c7fb8"/>
    <path d="M8.625,43.4a26.009,26.009,0,0,0,46.754-.011,11.3,11.3,0,0,1-1.542.1c-2.3.008-5.473-2.434-5.479-4.067.006,1.634-2.732,4.1-5.424,4.1-2.55.009-5.68-2.433-5.685-4.067.006,1.622-3.147,4.1-5.217,4.1-2.692.009-5.473-2.41-5.478-4.067.006,1.682-2.732,4.1-5.424,4.1s-5.446-2.422-5.452-4.067c.006,1.717-2.759,4.1-5.451,4.1A5.469,5.469,0,0,1,8.625,43.4Z" fill="#41b6c4"/>
    <path d="M32.476,58a25.919,25.919,0,0,0,18.267-7.978c-1.318-.853-2.356-2.051-2.359-2.985.006,1.634-2.732,4.1-5.424,4.1-2.55.009-5.68-2.433-5.685-4.067.006,1.622-3.147,4.1-5.217,4.1-2.692.009-5.473-2.41-5.478-4.067.006,1.682-2.732,4.1-5.424,4.1S15.71,48.791,15.7,47.145c0,1-.935,2.226-2.252,3.076A25.926,25.926,0,0,0,32.476,58Z" fill="#a1dab4"/>
  </g>
</svg>
