<svg xmlns="http://www.w3.org/2000/svg" width="64" height="64" viewBox="0 0 64 64">
  <title>too-little</title>
  <circle cx="32" cy="32" r="30" fill="#fff"/>
  <g>
    <path d="M57.245,25.754A26.007,26.007,0,0,0,6.79,25.622l32.249,2.643Z" fill="#dde4eb"/>
    <path d="M6,32.388q.005.348.02.693l14.055,2.51,37.908-2.737c.013-.412.018-.826.012-1.242a26.079,26.079,0,0,0-.753-5.858L39.039,28.265,6.79,25.622A26.029,26.029,0,0,0,6,32.388Z" fill="#fecc5c"/>
    <path d="M20.077,35.591,6.023,33.081a26.11,26.11,0,0,0,.437,3.8,25.809,25.809,0,0,0,1.157,4.155l35.732,2.884,13.395-3.914a25.86,25.86,0,0,0,1.243-7.154Z" fill="#fd8d3c"/>
    <path d="M43.348,43.923,7.616,41.039q.327.883.716,1.735a26.079,26.079,0,0,0,7.363,9.478l34.978-2.159a26.017,26.017,0,0,0,6.071-10.084Z" fill="#f03b20"/>
    <path d="M15.695,52.252q.652.525,1.338,1.008a25.99,25.99,0,0,0,33.64-3.167L28.122,50.1Z" fill="#bd0026"/>
  </g>
</svg>
