<svg xmlns="http://www.w3.org/2000/svg" width="64" height="64" viewBox="0 0 64 64">
  <title>too-dirty</title>
  <circle cx="32" cy="32" r="30" fill="#fff"/>
  <g>
    <g>
      <path d="M32,26.53a109.514,109.514,0,0,0,25.463.192,26.006,26.006,0,0,0-50.845-.378A108.231,108.231,0,0,1,32,26.53Z" fill="#dde4eb"/>
      <path d="M6.023,30.938a26.012,26.012,0,0,1,.6-4.595" fill="#fbb4b9"/>
      <path d="M35.735,31.138a31.078,31.078,0,0,0,22.259.378,26.1,26.1,0,0,0-.53-4.795A109.514,109.514,0,0,1,32,26.53a108.231,108.231,0,0,0-25.382-.186,26.012,26.012,0,0,0-.6,4.595C9.454,30.055,24.142,26.728,35.735,31.138Z" fill="#fbb4b9"/>
      <path d="M6.475,36.962a26.024,26.024,0,0,1-.407-3.094" fill="#f768a1"/>
      <path d="M6.068,33.867C6.026,33.279,6,32.687,6,32.089c0-.386.008-.769.023-1.15" fill="#f768a1"/>
      <path d="M57.993,31.516a31.076,31.076,0,0,1-22.259-.378c-11.593-4.41-26.28-1.083-29.712-.2C6.008,31.32,6,31.7,6,32.088c0,.6.026,1.191.068,1.779a26.03,26.03,0,0,0,.407,3.094c3.154-.51,11.943-1.643,18.773.209,7.272,1.972,26.809.56,32.211.119a26.031,26.031,0,0,0,.473-3.423Q58,32.9,58,31.911C58,31.779,58,31.648,57.993,31.516Z" fill="#f768a1"/>
      <path d="M10.523,46.657a25.875,25.875,0,0,1-3.636-7.906" fill="#c51b8a"/>
      <path d="M6.887,38.751q-.237-.883-.412-1.789" fill="#c51b8a"/>
      <path d="M25.249,37.171c-6.831-1.853-15.62-.719-18.773-.209q.175.906.412,1.789a25.874,25.874,0,0,0,3.636,7.905c6.526.615,17.429,1.267,22.483-.58,5.092-1.86,15.255-1.184,21.211-.566a25.853,25.853,0,0,0,2.9-6.76q.194-.723.347-1.461C52.057,37.731,32.52,39.143,25.249,37.171Z" fill="#c51b8a"/>
      <path d="M11.69,48.232q-.612-.765-1.167-1.575" fill="#7a0177"/>
      <path d="M33.005,46.077c-5.053,1.847-15.957,1.195-22.483.58q.554.811,1.167,1.575a26.02,26.02,0,0,0,42.526-2.72C48.261,44.893,38.1,44.217,33.005,46.077Z" fill="#7a0177"/>
    </g>
    <circle cx="15.649" cy="31.894" r="1.474" fill="#fca6bf"/>
    <circle cx="37.072" cy="35.167" r="0.777" transform="translate(-14.009 36.514) rotate(-45)" fill="#fca6bf"/>
    <circle cx="39.325" cy="51.125" r="1.579" fill="#bd70a9"/>
    <circle cx="23.755" cy="42.935" r="1.562" fill="#e37db3"/>
  </g>
</svg>
